<?xml version="1.0" encoding="UTF-8" standalone="no"?>
<svg
   xmlns:dc="http://purl.org/dc/elements/1.1/"
   xmlns:cc="http://creativecommons.org/ns#"
   xmlns:rdf="http://www.w3.org/1999/02/22-rdf-syntax-ns#"
   xmlns:svg="http://www.w3.org/2000/svg"
   xmlns="http://www.w3.org/2000/svg"
   xmlns:sodipodi="http://sodipodi.sourceforge.net/DTD/sodipodi-0.dtd"
   xmlns:inkscape="http://www.inkscape.org/namespaces/inkscape"
   height="22"
   viewBox="0 0 22 22"
   width="22"
   id="svg4227"
   version="1.1"
   inkscape:version="0.91 r13725"
   sodipodi:docname="DMStatusWorking.svg"
   style="fill:#000000">
  <metadata
     id="metadata4237">
    <rdf:RDF>
      <cc:Work
         rdf:about="">
        <dc:format>image/svg+xml</dc:format>
        <dc:type
           rdf:resource="http://purl.org/dc/dcmitype/StillImage" />
        <dc:title></dc:title>
      </cc:Work>
    </rdf:RDF>
  </metadata>
  <defs
     id="defs4235" />
  <sodipodi:namedview
     pagecolor="#ffffff"
     bordercolor="#666666"
     borderopacity="1"
     objecttolerance="10"
     gridtolerance="10"
     guidetolerance="10"
     inkscape:pageopacity="0"
     inkscape:pageshadow="2"
     inkscape:window-width="1920"
     inkscape:window-height="970"
     id="namedview4233"
     showgrid="false"
     inkscape:zoom="33.5"
     inkscape:cx="11.567164"
     inkscape:cy="12"
     inkscape:window-x="0"
     inkscape:window-y="0"
     inkscape:window-maximized="1"
     inkscape:current-layer="svg4227" />
  <path
     d="M 20,1 2,1 C 0.9,1 0,1.9 0,3 l 0,12 c 0,1.1 0.9,2 2,2 l 7,0 -2,3 0,1 8,0 0,-1 -2,-3 7,0 c 1.1,0 2,-0.9 2,-2 L 22,3 C 22,1.9 21.1,1 20,1 Z M 20,13 2,13 2,3 20,3 20,13 Z"
     id="path4231"
     inkscape:connector-curvature="0"
     style="fill:#000000;fill-opacity:0.49803922" />
  <rect
     style="opacity:0.98999999;fill:#000000;fill-opacity:1;stroke:none;stroke-width:3;stroke-opacity:1"
     id="rect4277"
     width="2"
     height="2"
     x="10"
     y="7" />
  <rect
     y="7"
     x="6"
     height="2"
     width="2"
     id="rect4301"
     style="opacity:0.98999999;fill:#000000;fill-opacity:1;stroke:none;stroke-width:3;stroke-opacity:1" />
  <rect
     y="7"
     x="14"
     height="2"
     width="2"
     id="rect4303"
     style="opacity:0.98999999;fill:#000000;fill-opacity:1;stroke:none;stroke-width:3;stroke-opacity:1" />
</svg>
